<svg width="101" height="101" viewBox="0 0 101 101" fill="none" xmlns="http://www.w3.org/2000/svg">
<g clip-path="url(#clip0_906_19105)">
<g clip-path="url(#clip1_906_19105)">
<path opacity="0.08" fill-rule="evenodd" clip-rule="evenodd" d="M79.2314 89.7341C88.1075 81.861 93.6913 70.4311 93.6913 57.7116C93.6913 33.9619 74.2236 14.709 50.209 14.709C26.1943 14.709 6.72656 33.9619 6.72656 57.7116C6.72656 70.2897 12.1871 81.6063 20.8916 89.4699C34.7619 89.4546 66.4623 90.0199 79.2314 89.7341Z" fill="#B2B2B2"/>
<path d="M28.1622 40.48C27.7788 40.48 27.4193 40.5895 27.1198 40.7818C26.8203 39.1991 25.4155 37.998 23.7261 37.998C22.0338 37.998 20.623 39.202 20.3294 40.7907C19.973 40.5924 19.5627 40.48 19.1224 40.48C17.7625 40.48 16.6602 41.5687 16.6602 42.9117C16.6602 43.1721 16.7022 43.4236 16.7801 43.6602H29.6179C29.9204 43.3229 30.1031 42.8792 30.1031 42.3941C30.1001 41.3379 29.2345 40.48 28.1622 40.48Z" fill="#FEFEFE" stroke="#0053FA" stroke-width="0.373204" stroke-linecap="round" stroke-linejoin="round"/>
<path d="M78.8936 44.4147C78.322 44.4147 77.7858 44.5747 77.3389 44.8557C76.8921 42.5425 74.7968 40.7871 72.2772 40.7871C69.7532 40.7871 67.6491 42.5468 67.2111 44.8686C66.6793 44.579 66.0674 44.4147 65.4109 44.4147C63.3824 44.4147 61.7383 46.0058 61.7383 47.9687C61.7383 48.3492 61.8007 48.7167 61.9171 49.0626H81.065C81.5163 48.5697 81.7888 47.9212 81.7888 47.2121C81.7844 45.6686 80.4929 44.4147 78.8936 44.4147Z" fill="#FEFEFE" stroke="#0053FA" stroke-width="0.373204" stroke-linecap="round" stroke-linejoin="round"/>
<path d="M31.982 78.5297H24.4563L23.0444 79.0811L24.0713 77.2024L19.8438 72.1594C20.8148 72.1594 22.8056 72.2125 22.9998 72.4249L21.3004 66.32C21.4553 66.4342 21.6174 66.5552 21.7859 66.6824C23.5915 66.1797 27.666 65.6091 30.8684 66.8508C30.835 65.3467 30.9139 62.2324 31.4965 61.8077C31.541 61.7752 31.6104 61.7798 31.7016 61.8171C33.3375 61.9108 36.1817 62.4893 39.0223 64.0127C38.6986 61.5082 38.2455 56.3398 39.0223 55.7028C39.0996 55.6394 39.2386 55.6686 39.4291 55.7829C44.0321 56.7682 53.1343 61.2965 55.7731 72.4249C57.4726 70.8322 62.3276 68.3903 68.1544 71.3631C68.397 74.2939 68.4696 80.7895 66.8187 83.3243L69.5205 83.5104L70.5816 82.2459L70.556 82.1693C69.983 80.4585 68.9336 76.9775 69.1251 76.1407C69.1442 76.0573 69.1915 76.0013 69.2627 75.9718C69.2681 75.9698 69.2734 75.9674 69.2789 75.9654C70.2972 75.5849 72.9259 75.5186 75.4371 78.2645C75.4494 78.2827 75.4617 78.3018 75.4745 78.321C77.0807 77.1518 81.312 75.2382 85.3907 76.9372L81.9916 84.3692L81.3453 84.3245L79.8815 84.2239L77.1136 84.0334L75.7563 83.9396L69.5205 83.5104L66.8187 83.3243L65.9692 83.2658L64.7554 83.1819L60.2372 82.871L59.2325 82.8018L51.646 82.2793L51.1605 82.2459L50.4323 81.9803L49.0439 81.4745L47.5191 80.9186H44.1203H43.7561H43.3921L42.7962 80.653L39.7505 79.2967L36.8373 77.9989L34.167 78.291L32.8778 78.432L31.982 78.5297Z" fill="#FEFEFE"/>
<path d="M24.5144 77.9663H32.0401L32.9359 77.8686L34.2251 77.7276L36.8955 77.4355L39.8086 78.7333L42.8543 80.0901L43.4502 80.3552H43.8143H44.1784H47.5772L49.102 80.9111L50.4904 81.4169L51.2186 81.6825L51.7042 81.7159L59.2907 82.2384L60.2954 82.3076L64.8136 82.619L66.0274 82.7024L66.8769 82.7609L69.5787 82.947L75.814 83.3767L77.1713 83.47L79.9393 83.6605L81.4036 83.7616L82.0499 83.8058C82.5355 84.0715 83.4096 84.7084 83.0212 85.1331C82.9401 85.2215 83.0212 85.3453 83.992 85.1331C84.9633 84.9205 85.0438 85.9291 84.9632 86.4604V86.7256H86.9053C87.2289 86.7256 87.8275 87.0973 87.6336 88.5837C91.4367 88.8489 96.7617 89.3797 87.6336 89.3797H26.6615H13.0491C9.97407 89.3797 4.84363 89.3267 8.92209 89.1146C13.0006 88.9019 12.6999 88.6721 12.6189 88.5837C12.2952 88.0529 11.9392 86.9913 13.1044 86.9913H16.2604C16.0986 86.2832 15.872 84.8144 16.2604 84.6023C16.4034 84.5242 17.1571 84.3538 18.1865 84.1658C18.1056 83.1041 18.2996 80.8861 19.6591 80.8861C19.813 80.8861 19.9749 80.8797 20.1446 80.8684C20.1446 80.2168 20.792 79.547 21.1157 79.2936L23.1025 78.5177L24.5144 77.9663Z" fill="#0053FA"/>
<path d="M32.0396 77.9984H24.5139L23.102 78.5499M32.0396 77.9984C31.4732 78.6176 30.4374 79.9626 30.8258 80.3874M32.0396 77.9984L32.9354 77.9007M23.102 78.5499L21.1151 79.3257C20.7915 79.5791 20.1441 80.2489 20.1441 80.9M23.102 78.5499L24.1289 76.6711M32.9354 77.9007C32.1513 77.3139 30.2431 75.9812 28.8837 75.3443C27.5242 74.7069 25.7277 74.9019 24.9994 75.0787M32.9354 77.9007C32.3822 75.6036 29.0367 72.1832 25.818 69.3804M32.9354 77.9007L34.2245 77.7598M20.1441 80.9C19.9744 80.9118 19.8125 80.9182 19.6586 80.9182C18.2991 80.9182 18.105 83.1363 18.1859 84.1979M20.1441 80.9C21.8477 80.7846 24.3362 80.1698 27.4271 80.6525C31.3923 82.6879 39.4197 86.7578 39.8081 86.7578M24.1289 76.6711L19.9013 71.6281C20.8724 71.6281 22.8631 71.6812 23.0573 71.8936M24.1289 76.6711L24.7938 75.4548M24.9994 75.0787L24.7938 75.4548M24.9994 75.0787L25.818 69.3804M25.818 69.3804C24.3814 68.1294 22.97 67.0014 21.8435 66.1511M34.2245 77.7598L36.8949 77.4676L39.8081 78.7654M34.2245 77.7598L35.0778 75.8751M43.4496 80.3874L42.8537 80.1217M43.4496 80.3874H43.8138M43.4496 80.3874C40.9496 74.7104 37.8402 71.0319 34.6042 68.5606M42.8537 80.1217L40.2936 76.9368L35.4383 75.0787L35.0778 75.8751M42.8537 80.1217L39.8081 78.7654M43.8138 80.3874H44.1779M43.8138 80.3874C43.9108 78.0515 40.8601 72.3359 39.3226 69.7701C38.5438 68.7718 37.4905 67.4539 36.4094 66.154M34.6042 68.5606C34.3167 68.3411 34.0282 68.131 33.739 67.93M34.6042 68.5606C34.5195 68.23 35.7724 66.8185 36.4094 66.154M35.0778 75.8751L39.5654 77.7598L39.8081 78.7654M44.1779 80.3874H47.5766L49.1015 80.9432M44.1779 80.3874L44.7713 78.7654M36.4094 66.154C35.6845 65.2824 34.9471 64.4189 34.2716 63.6653M33.739 67.93C33.1742 67.5373 32.6069 67.1788 32.0396 66.8504C31.6847 66.645 31.3116 66.4691 30.926 66.3196M33.739 67.93C33.5448 67.7319 34.0131 65.0043 34.2716 63.6653M51.2181 81.7147L50.4898 81.449M51.2181 81.7147C51.2181 80.1217 49.1015 73.7513 44.1779 67.6467C43.7951 67.1721 43.3917 66.7303 42.973 66.3196M51.2181 81.7147L51.7036 81.7481M51.2181 81.7147C50.9764 74.9755 48.2079 68.1711 45.3685 63.1344M50.4898 81.449L49.5187 79.0601L45.149 77.7333L44.7713 78.7654M50.4898 81.449L49.1015 80.9432M42.973 66.3196C42.6881 66.04 42.3961 65.7748 42.0986 65.5233M42.973 66.3196C42.725 66.0693 44.4667 64.0918 45.3685 63.1344M51.7036 81.7481C52.2947 81.3223 52.8092 80.763 53.2552 80.1217M51.7036 81.7481L59.2903 82.2705M45.3685 63.1344C44.3163 61.268 43.2543 59.6443 42.3076 58.3567M44.7713 78.7654L48.7904 79.8566L49.1015 80.9432M42.0986 65.5233C41.1309 64.705 40.1056 64.0316 39.0798 63.4815M42.0986 65.5233C41.9889 65.0986 42.1922 60.5686 42.3076 58.3567M53.2552 80.1217C55.0071 77.6026 55.7017 73.8157 55.8309 71.8936M53.2552 80.1217L55.8102 77.7519M59.2903 82.2705L59.472 80.9432L55.8309 79.0601L56.4437 78.3338M59.2903 82.2705L60.295 82.3398M42.3076 58.3567C40.677 56.1392 39.3883 54.9186 39.0798 55.1715M82.0494 83.838C82.5351 84.1031 83.4086 84.7405 83.0202 85.1653C82.9397 85.2537 83.0202 85.3774 83.9915 85.1653C84.9623 84.9527 85.0433 85.9613 84.9623 86.4921V86.7578M82.0494 83.838L85.448 76.406C81.3698 74.7069 77.1379 76.6205 75.5322 77.7897M82.0494 83.838L81.4032 83.7933M84.9623 86.7578H86.9044C87.2285 86.7578 87.8271 87.129 87.6331 88.6154C91.4363 88.881 96.7607 89.4119 87.6331 89.4119C80.2807 89.4119 49.5469 89.4119 26.661 89.4119C21.1327 89.4119 17.4636 89.3304 13.2913 89.3304C10.2163 89.3304 5.08581 89.2773 9.16427 89.0652C13.2428 88.8526 12.6993 88.7043 12.6184 88.6154C12.2947 88.0846 11.9386 87.0229 13.1039 87.0229C14.2692 87.0229 15.6934 87.0229 16.2599 87.0229M84.9623 86.7578H76.4657M75.5322 77.7897C75.5194 77.7706 75.5072 77.7514 75.4949 77.7333C72.9699 74.9726 70.3261 75.0546 69.32 75.4406M75.5322 77.7897C76.0066 78.5175 76.6783 79.7932 77.0437 81.0464M81.4032 83.7933L80.1658 81.0464H77.0437M81.4032 83.7933L79.9389 83.6926M16.2599 87.0229C16.098 86.3153 15.8714 84.8466 16.2599 84.634C16.7454 84.3688 24.2711 83.0415 25.7277 83.5723L26.456 81.7147L26.5751 86.9065M16.2599 87.0229L26.5751 86.9065M76.4657 86.7578V85.6961H75.0092V86.7578M76.4657 86.7578H75.0092M69.32 75.4406C69.2488 75.47 69.2016 75.526 69.183 75.6095C68.9915 76.4462 70.0408 79.9273 70.6139 81.6381M69.32 75.4406C69.5792 75.3325 70.1601 75.5741 70.882 76.1094M77.0437 81.0464C77.3064 81.9469 77.411 82.8357 77.1708 83.5021M79.9389 83.6926L75.8136 83.4083M79.9389 83.6926L79.136 81.7147M26.5751 86.9065L39.8081 86.7578M75.0092 86.7578H73.0672M39.8081 86.7578H52.6747M52.6747 86.7578V84.634H53.8885V86.7578M52.6747 86.7578H53.8885M53.8885 86.7578H55.3451M55.3451 86.7578V84.8996L73.0672 85.6961V86.7578M55.3451 86.7578H73.0672M23.0573 71.8936C23.2515 72.1059 24.2959 74.3563 24.7938 75.4548M23.0573 71.8936L21.3579 65.7887C21.5128 65.903 21.6749 66.0239 21.8435 66.1511M21.8435 66.1511C23.6491 65.6485 27.7236 65.0778 30.926 66.3196M30.926 66.3196C30.8926 64.8154 30.9715 61.7011 31.5541 61.2764M31.5541 61.2764C33.1494 61.3314 36.1166 61.8922 39.0798 63.4815M31.5541 61.2764C31.8137 61.0872 32.9186 62.1559 34.2716 63.6653M39.0798 63.4815C38.7561 60.9769 38.303 55.8086 39.0798 55.1715M39.0798 55.1715C43.5305 55.9678 53.1117 60.427 55.8309 71.8936M55.8309 71.8936C57.5299 70.301 62.3854 67.8591 68.2117 70.8319C68.4542 73.7626 68.5274 80.2582 66.8765 82.793M55.8309 71.8936C57.7828 72.9367 61.4868 75.4494 64.2862 78.7949M66.8765 82.793C66.2234 81.3685 65.316 80.0255 64.2862 78.7949M66.8765 82.793L66.027 82.7346M66.8765 82.793L69.5783 82.9791M64.2862 78.7949L60.5223 80.2617M66.027 82.7346L64.2862 79.8566L63.5992 80.1217L64.8131 82.6506M66.027 82.7346L64.8131 82.6506M69.5783 82.9791L70.6394 81.7147C70.6311 81.6891 70.6222 81.6641 70.6139 81.6381M69.5783 82.9791L75.8136 83.4083M55.8102 77.7519L55.8309 77.7333M55.8102 77.7519L55.8309 77.9984L56.4437 78.3338M60.5223 80.2617L60.2002 80.3874L56.4437 78.3338M60.5223 80.2617L60.295 82.3398M60.295 82.3398L64.8131 82.6506M70.6139 81.6381L71.8533 80.1217M75.8136 83.4083C75.4566 82.2033 74.9464 81.0994 74.3665 80.1217M71.8533 80.1217H74.3665M71.8533 80.1217L70.882 76.1094M74.3665 80.1217C73.2729 78.2793 71.9289 76.8857 70.882 76.1094" stroke="#041630" stroke-width="0.493397"/>
</g>
</g>
<defs>
<clipPath id="clip0_906_19105">
<rect width="100" height="100" fill="white" transform="translate(0.25 0.708984)"/>
</clipPath>
<clipPath id="clip1_906_19105">
<rect width="100" height="100" fill="white" transform="translate(0.25 0.708984)"/>
</clipPath>
</defs>
</svg>
