<svg width="35" height="31" viewBox="0 0 35 31" fill="none" xmlns="http://www.w3.org/2000/svg">
<path d="M4.1661 30.6992C3.24943 30.6992 2.46471 30.3728 1.81193 29.7201C1.15915 29.0673 0.832764 28.2826 0.832764 27.3659V4.03255C0.832764 3.11589 1.15915 2.33116 1.81193 1.67839C2.46471 1.02561 3.24943 0.699219 4.1661 0.699219H27.4994C28.4161 0.699219 29.2008 1.02561 29.8536 1.67839C30.5064 2.33116 30.8328 3.11589 30.8328 4.03255V7.36589H34.1661V10.6992H30.8328V14.0326H34.1661V17.3659H30.8328V20.6992H34.1661V24.0326H30.8328V27.3659C30.8328 28.2826 30.5064 29.0673 29.8536 29.7201C29.2008 30.3728 28.4161 30.6992 27.4994 30.6992H4.1661ZM4.1661 27.3659H27.4994V4.03255H4.1661V27.3659ZM7.49943 24.0326H15.8328V17.3659H7.49943V24.0326ZM17.4994 12.3659H24.1661V7.36589H17.4994V12.3659ZM7.49943 15.6992H15.8328V7.36589H7.49943V15.6992ZM17.4994 24.0326H24.1661V14.0326H17.4994V24.0326Z" fill="#002E3B"/>
</svg>
