<svg width="101" height="101" viewBox="0 0 101 101" fill="none" xmlns="http://www.w3.org/2000/svg">
<g clip-path="url(#clip0_906_19037)">
<g clip-path="url(#clip1_906_19037)">
<path opacity="0.06" fill-rule="evenodd" clip-rule="evenodd" d="M79.4507 88.0485C88.228 80.1457 93.75 68.6728 93.75 55.9052C93.75 32.0659 74.4982 12.7402 50.75 12.7402C27.0018 12.7402 7.75 32.0659 7.75 55.9052C7.75 68.5309 13.1499 79.8905 21.7579 87.7837C35.4743 87.7682 66.8229 88.3358 79.4507 88.0485Z" fill="#B2B2B2"/>
<path d="M30.9528 37.5367C30.2725 37.5367 29.6347 37.7358 29.1031 38.0856C28.5716 35.2064 26.0789 33.0215 23.0812 33.0215C20.0782 33.0215 17.5748 35.2118 17.0539 38.1018C16.4214 37.7412 15.6932 37.5367 14.9119 37.5367C12.4989 37.5367 10.543 39.5172 10.543 41.9605C10.543 42.4341 10.6174 42.8915 10.7555 43.3221H33.5359C34.0727 42.7085 34.397 41.9013 34.397 41.0187C34.3916 39.0974 32.8556 37.5367 30.9528 37.5367Z" fill="#FEFEFE" stroke="#0053FA" stroke-width="0.503913" stroke-linecap="round" stroke-linejoin="round"/>
<path d="M87.887 29.064C87.4308 29.064 87.0032 29.2002 86.6469 29.4396C86.2905 27.4696 84.6192 25.9746 82.6094 25.9746C80.596 25.9746 78.9176 27.4733 78.5684 29.4506C78.1443 29.2039 77.6561 29.064 77.1323 29.064C75.5145 29.064 74.2031 30.419 74.2031 32.0908C74.2031 32.4148 74.253 32.7278 74.3456 33.0224H89.6188C89.9787 32.6026 90.1961 32.0503 90.1961 31.4464C90.1926 30.1318 89.1627 29.064 87.887 29.064Z" fill="#FEFEFE" stroke="#0053FA" stroke-width="0.503913" stroke-linecap="round" stroke-linejoin="round"/>
<path d="M70.946 83.4746H29.6719V85.7084H70.946V83.4746Z" fill="#E4DCFF" stroke="#041630" stroke-width="0.503913" stroke-linecap="round" stroke-linejoin="round"/>
<path d="M54.8463 59.6396C53.7121 55.1026 52.5778 36.5877 52.5778 27.5137L50.3093 29.0588L48.0408 27.5137C48.0408 36.5877 46.9065 55.1026 45.7723 59.6396C44.638 64.1766 42.3695 68.7136 42.3695 68.7136H46.9065C46.9065 68.7136 49.1751 62.8609 49.1751 59.4581H51.4436C51.4436 62.8609 53.7121 68.7136 53.7121 68.7136H58.2491C58.2491 68.7136 55.9806 64.1766 54.8463 59.6396ZM59.3834 70.8687H41.2353L34.4297 83.3455H40.101C43.5038 76.54 45.2982 74.2715 50.3093 74.2715C55.3205 74.2715 57.1148 76.54 60.5176 83.3455H66.1889L59.3834 70.8687Z" fill="white" stroke="black" stroke-width="0.503913"/>
<path d="M53.8199 25.4855C53.8199 25.9763 53.5943 26.44 53.2081 26.743L51.2486 28.2798C50.6415 28.7559 49.7878 28.7559 49.1808 28.2798L47.2212 26.743C46.835 26.44 46.6094 25.9763 46.6094 25.4855C46.6094 24.9946 46.835 24.5309 47.2212 24.228L49.1808 22.6911C49.7878 22.215 50.6415 22.215 51.2486 22.6911L53.2081 24.228C53.5943 24.5309 53.8199 24.9946 53.8199 25.4855Z" fill="#0053FA" stroke="#041630" stroke-width="0.503913" stroke-linecap="round" stroke-linejoin="round"/>
<path d="M54.4281 25.2944C54.4281 25.5788 54.1975 25.8094 53.9131 25.8094H46.7025C46.4181 25.8094 46.1875 25.5788 46.1875 25.2944C46.1875 25.0099 46.4181 24.7793 46.7025 24.7793H53.9131C54.1975 24.7793 54.4281 25.0099 54.4281 25.2944Z" fill="white" stroke="black" stroke-width="0.503913"/>
<path d="M50.8123 15.494C50.8123 15.2158 50.5867 14.9902 50.3085 14.9902C50.0302 14.9902 49.8047 15.2158 49.8047 15.494V22.0434C49.8047 22.3216 50.0302 22.5472 50.3085 22.5472C50.5867 22.5472 50.8123 22.3216 50.8123 22.0434V15.494Z" stroke="black" stroke-width="0.503913"/>
<path d="M40.4371 72.1695C40.2991 72.1697 40.1873 72.2818 40.1875 72.4199C40.1877 72.558 40.2998 72.6697 40.4379 72.6695L40.4371 72.1695ZM40.4379 72.6695L60.3157 72.6387L60.3149 72.1387L40.4371 72.1695L40.4379 72.6695Z" fill="black"/>
<path d="M52.4732 31.2667L50.3086 33.473L52.7223 36.3L50.3086 39.3928L52.9997 42.3527L50.3086 45.3126L53.4142 48.2725L50.3086 51.2324L54.0031 53.663L50.3086 57.1522V29.0605L52.4732 31.2667Z" stroke="black" stroke-width="0.3" stroke-linejoin="round"/>
<path d="M48.1471 31.2667L50.3117 33.473L47.898 36.3L50.3117 39.3928L47.6206 42.3527L50.3117 45.3126L47.2061 48.2725L50.3117 51.2324L46.6172 53.663L50.3117 57.1522V29.0605L48.1471 31.2667Z" stroke="black" stroke-width="0.3" stroke-linejoin="round"/>
<path d="M49.2072 59.4824L45.3775 61.3271L48.636 63.1718L44.1871 65.0165L47.5339 66.8612L42.4141 68.7059" stroke="black" stroke-width="0.3" stroke-linejoin="round"/>
<path d="M49.0935 59.5684L44.1055 65.0559L46.8205 68.6957" stroke="black" stroke-width="0.3" stroke-linejoin="round"/>
<path d="M44.0796 76.7013H38.0366L46.1015 72.4512L44.0796 76.7013ZM44.0796 76.7013L36.1661 80.0105H41.7775L34.4297 83.1607" stroke="black" stroke-width="0.3" stroke-linejoin="round"/>
<path d="M40.1027 83.4754L36.0742 80.1074" stroke="black" stroke-width="0.3" stroke-linejoin="round"/>
<path d="M41.7527 80.1084L38.0859 76.7402" stroke="black" stroke-width="0.3" stroke-linejoin="round"/>
<path d="M44.1076 76.7395L40.4375 72.4199" stroke="black" stroke-width="0.3" stroke-linejoin="round"/>
<path d="M56.4242 76.7013H62.4672L54.4023 72.4512L56.4242 76.7013ZM56.4242 76.7013L64.3377 80.0105H58.7263L66.0741 83.1607" stroke="black" stroke-width="0.3" stroke-linejoin="round"/>
<path d="M60.4023 83.3036L64.4308 79.9355" stroke="black" stroke-width="0.3" stroke-linejoin="round"/>
<path d="M58.75 80.1084L62.4168 76.7402" stroke="black" stroke-width="0.3" stroke-linejoin="round"/>
<path d="M56.3945 76.7395L60.0646 72.4199" stroke="black" stroke-width="0.3" stroke-linejoin="round"/>
<path d="M51.4102 59.3652L55.2965 61.1959L52.0861 63.6178L56.5787 65.0979L52.8514 66.1895L58.2181 68.7233" stroke="black" stroke-width="0.3" stroke-linecap="round" stroke-linejoin="round"/>
<path d="M51.5234 59.4512L56.5925 65.0552L53.9447 68.7712" stroke="black" stroke-width="0.3" stroke-linejoin="round"/>
<path d="M48.9221 57.1704L50.3275 29.0918L51.7329 57.1704H48.9221Z" fill="#E4DCFF" stroke="black" stroke-width="0.503913"/>
<path d="M55.0934 57.1543H45.5212C44.9184 57.1543 44.4297 57.643 44.4297 58.2459C44.4297 58.8487 44.9184 59.3374 45.5212 59.3374H55.0934C55.6963 59.3374 56.185 58.8487 56.185 58.2459C56.185 57.643 55.6963 57.1543 55.0934 57.1543Z" fill="#0053FA" stroke="#041630" stroke-width="0.503913" stroke-linecap="round" stroke-linejoin="round"/>
<path d="M53.835 44.5605H46.6244C46.34 44.5605 46.1094 44.7911 46.1094 45.0756C46.1094 45.36 46.34 45.5906 46.6244 45.5906H53.835C54.1194 45.5906 54.35 45.36 54.35 45.0756C54.35 44.7911 54.1194 44.5605 53.835 44.5605Z" fill="#0053FA" stroke="#041630" stroke-width="0.503913" stroke-linecap="round" stroke-linejoin="round"/>
<path d="M60.0043 68.7402H40.6082C40.0285 68.7402 39.5586 69.2101 39.5586 69.7898C39.5586 70.3695 40.0285 70.8394 40.6082 70.8394H60.0043C60.584 70.8394 61.0539 70.3695 61.0539 69.7898C61.0539 69.2101 60.584 68.7402 60.0043 68.7402Z" fill="#0053FA" stroke="#041630" stroke-width="0.503913" stroke-linecap="round" stroke-linejoin="round"/>
</g>
</g>
<defs>
<clipPath id="clip0_906_19037">
<rect width="100" height="100" fill="white" transform="translate(0.75 0.708984)"/>
</clipPath>
<clipPath id="clip1_906_19037">
<rect width="100" height="100" fill="white" transform="translate(0.75 0.708984)"/>
</clipPath>
</defs>
</svg>
