<svg width="9" height="6" viewBox="0 0 9 6" fill="none" xmlns="http://www.w3.org/2000/svg">
<mask id="path-1-inside-1_906_16795" fill="white">
<path d="M0.624512 0.5H8.62451V5.5H0.624512V0.5Z"/>
</mask>
<g clip-path="url(#paint0_diamond_906_16795_clip_path)" data-figma-skip-parse="true" mask="url(#path-1-inside-1_906_16795)"><g transform="matrix(0.004 0 0 0.005 4.62451 0.5)"><rect x="0" y="0" width="1250" height="1200" fill="url(#paint0_diamond_906_16795)" opacity="1" shape-rendering="crispEdges"/><rect x="0" y="0" width="1250" height="1200" transform="scale(1 -1)" fill="url(#paint0_diamond_906_16795)" opacity="1" shape-rendering="crispEdges"/><rect x="0" y="0" width="1250" height="1200" transform="scale(-1 1)" fill="url(#paint0_diamond_906_16795)" opacity="1" shape-rendering="crispEdges"/><rect x="0" y="0" width="1250" height="1200" transform="scale(-1)" fill="url(#paint0_diamond_906_16795)" opacity="1" shape-rendering="crispEdges"/></g></g><path d="M0.624512 0.5V-4.5H-3.37549V0.5H0.624512ZM8.62451 0.5H12.6245V-4.5H8.62451V0.5ZM0.624512 0.5V5.5H8.62451V0.5V-4.5H0.624512V0.5ZM8.62451 0.5H4.62451V5.5H8.62451H12.6245V0.5H8.62451ZM0.624512 5.5H4.62451V0.5H0.624512H-3.37549V5.5H0.624512Z" data-figma-gradient-fill="{&#34;type&#34;:&#34;GRADIENT_DIAMOND&#34;,&#34;stops&#34;:[{&#34;color&#34;:{&#34;r&#34;:0.0,&#34;g&#34;:0.0,&#34;b&#34;:0.0,&#34;a&#34;:1.0},&#34;position&#34;:0.99999988079071045},{&#34;color&#34;:{&#34;r&#34;:0.0,&#34;g&#34;:0.0,&#34;b&#34;:0.0,&#34;a&#34;:0.0},&#34;position&#34;:1.0}],&#34;stopsVar&#34;:[{&#34;color&#34;:{&#34;r&#34;:0.0,&#34;g&#34;:0.0,&#34;b&#34;:0.0,&#34;a&#34;:1.0},&#34;position&#34;:0.99999988079071045},{&#34;color&#34;:{&#34;r&#34;:0.0,&#34;g&#34;:0.0,&#34;b&#34;:0.0,&#34;a&#34;:0.0},&#34;position&#34;:1.0}],&#34;transform&#34;:{&#34;m00&#34;:8.0,&#34;m01&#34;:0.0,&#34;m02&#34;:0.624511718750,&#34;m10&#34;:0.0,&#34;m11&#34;:10.0,&#34;m12&#34;:-4.50},&#34;opacity&#34;:1.0,&#34;blendMode&#34;:&#34;NORMAL&#34;,&#34;visible&#34;:true}" mask="url(#path-1-inside-1_906_16795)"/>
<defs>
<clipPath id="paint0_diamond_906_16795_clip_path"><path d="M0.624512 0.5V-4.5H-3.37549V0.5H0.624512ZM8.62451 0.5H12.6245V-4.5H8.62451V0.5ZM0.624512 0.5V5.5H8.62451V0.5V-4.5H0.624512V0.5ZM8.62451 0.5H4.62451V5.5H8.62451H12.6245V0.5H8.62451ZM0.624512 5.5H4.62451V0.5H0.624512H-3.37549V5.5H0.624512Z" mask="url(#path-1-inside-1_906_16795)"/></clipPath><linearGradient id="paint0_diamond_906_16795" x1="0" y1="0" x2="500" y2="500" gradientUnits="userSpaceOnUse">
<stop offset="1"/>
<stop offset="1" stop-opacity="0"/>
</linearGradient>
</defs>
</svg>
