<svg width="21" height="20" viewBox="0 0 21 20" fill="none" xmlns="http://www.w3.org/2000/svg">
<path d="M10.6345 0.25C8.70612 0.25 6.82109 0.82183 5.21771 1.89317C3.61434 2.96451 2.36465 4.48726 1.6267 6.26884C0.888743 8.0504 0.695663 10.0108 1.07187 11.9021C1.44807 13.7934 2.37667 15.5307 3.74023 16.8943C5.1038 18.2579 6.84108 19.1865 8.73242 19.5627C10.6237 19.9389 12.5841 19.7458 14.3657 19.0078C16.1472 18.2699 17.67 17.0202 18.7413 15.4168C19.8127 13.8134 20.3845 11.9284 20.3845 10C20.3815 7.41505 19.3533 4.93683 17.5255 3.109C15.6977 1.28116 13.2195 0.25298 10.6345 0.25ZM18.8489 9.25H15.1148C14.947 5.82719 13.6289 3.40656 12.5479 1.975C14.2263 2.37804 15.7365 3.29628 16.8666 4.60095C17.9968 5.90562 18.6894 7.53129 18.8489 9.25ZM7.65609 10.75H13.6129C13.3964 14.6509 11.5289 17.0416 10.6345 17.9688C9.73922 17.0406 7.87265 14.65 7.65609 10.75ZM7.65609 9.25C7.87265 5.34906 9.74012 2.95844 10.6345 2.03125C11.5298 2.96219 13.3964 5.35281 13.6129 9.25H7.65609ZM8.72112 1.975C7.64015 3.40656 6.32202 5.82719 6.15421 9.25H2.41921C2.57877 7.53129 3.27225 5.90562 4.4024 4.60095C5.53255 3.29628 7.0427 2.37804 8.72112 1.975ZM2.41921 10.75H6.15421C6.32484 14.1728 7.64015 16.5934 8.72112 18.025C7.0427 17.622 5.53255 16.7037 4.4024 15.399C3.27225 14.0944 2.57877 12.4687 2.41921 10.75ZM12.5442 18.025C13.6251 16.5934 14.9404 14.1728 15.1111 10.75H18.8461C18.6867 12.4682 17.9938 14.0935 16.8644 15.3981C15.735 16.7027 14.2256 17.6213 12.5479 18.025H12.5442Z" fill="#002E3B"/>
</svg>
