<svg width="101" height="101" viewBox="0 0 101 101" fill="none" xmlns="http://www.w3.org/2000/svg">
<g clip-path="url(#clip0_906_19070)">
<g clip-path="url(#clip1_906_19070)">
<path opacity="0.06" fill-rule="evenodd" clip-rule="evenodd" d="M78.9507 88.1345C87.728 80.2317 93.25 68.7588 93.25 55.9913C93.25 32.1519 73.9982 12.8262 50.25 12.8262C26.5018 12.8262 7.25 32.1519 7.25 55.9913C7.25 68.6169 12.6499 79.9765 21.2579 87.8697C34.9743 87.8542 66.3229 88.4218 78.9507 88.1345Z" fill="#B2B2B2"/>
<path d="M30.4528 37.6226C29.7725 37.6226 29.1347 37.8217 28.6031 38.1716C28.0716 35.2923 25.5789 33.1074 22.5812 33.1074C19.5782 33.1074 17.0748 35.2977 16.5539 38.1877C15.9214 37.8271 15.1932 37.6226 14.4119 37.6226C11.9989 37.6226 10.043 39.6031 10.043 42.0464C10.043 42.52 10.1174 42.9774 10.2555 43.408H33.0359C33.5727 42.7944 33.897 41.9872 33.897 41.1046C33.8916 39.1833 32.3556 37.6226 30.4528 37.6226Z" fill="#F2F2F2" stroke="#0053FA" stroke-width="0.503913" stroke-linecap="round" stroke-linejoin="round"/>
<path d="M87.387 29.1499C86.9308 29.1499 86.5032 29.2861 86.1469 29.5255C85.7905 27.5555 84.1192 26.0605 82.1094 26.0605C80.096 26.0605 78.4176 27.5592 78.0684 29.5365C77.6443 29.2898 77.1561 29.1499 76.6323 29.1499C75.0145 29.1499 73.7031 30.505 73.7031 32.1767C73.7031 32.5007 73.753 32.8137 73.8456 33.1083H89.1188C89.4787 32.6885 89.6961 32.1362 89.6961 31.5323C89.6926 30.2177 88.6627 29.1499 87.387 29.1499Z" fill="#F2F2F2" stroke="#0053FA" stroke-width="0.503913" stroke-linecap="round" stroke-linejoin="round"/>
<path d="M44.2459 83.4437V30.4147L41.072 27.8887L39.2539 83.4437H44.2459Z" fill="#E4DCFF" stroke="#041630" stroke-width="0.503913" stroke-linecap="round" stroke-linejoin="round"/>
<path d="M41.3075 21.1309L39.4297 83.2353" stroke="#041630" stroke-width="0.503913" stroke-linecap="round" stroke-linejoin="round"/>
<path d="M44.2461 83.441V30.4121C46.993 33.7433 53.3914 42.2817 57.0095 49.7859C60.6276 57.29 59.7454 75.3493 58.8521 83.441H44.2461Z" fill="white" stroke="#041630" stroke-width="0.503913" stroke-linecap="round" stroke-linejoin="round"/>
<path d="M44.2461 71.1855H57.8891L44.2461 82.9686" stroke="#041630" stroke-width="0.503913" stroke-linejoin="round"/>
<path d="M44.5078 58.0605H57.5534L44.5078 71.1842" stroke="#041630" stroke-width="0.503913" stroke-linejoin="round"/>
<path d="M44.2461 42.5918H52.0037L44.2461 58.0629" stroke="#041630" stroke-width="0.503913" stroke-linejoin="round"/>
<path d="M57.4887 83.2323C62.1709 48.5304 47.1724 34.2879 41.3047 27.9121C45.6549 30.7566 55.2658 39.5941 58.9078 52.1881C62.5498 64.7822 61.1335 78.1318 59.9701 83.2323H57.4887Z" fill="#0053FA" stroke="#041630" stroke-width="0.503913" stroke-linecap="round" stroke-linejoin="round"/>
<path d="M55.1523 45.9499L57.8898 42.6309" stroke="#041630" stroke-width="0.503913" stroke-linecap="round" stroke-linejoin="round"/>
<path d="M44.9336 42.6309H61.0737" stroke="#041630" stroke-width="0.503913" stroke-linecap="round" stroke-linejoin="round"/>
<path d="M44.2461 35.9902H48.2483" stroke="#041630" stroke-width="0.503913" stroke-linecap="round" stroke-linejoin="round"/>
<path d="M44.7383 45.9512H53.5432" stroke="#041630" stroke-width="0.503913" stroke-linecap="round" stroke-linejoin="round"/>
<path d="M44.2461 39.3105H49.8492" stroke="#041630" stroke-width="0.503913" stroke-linecap="round" stroke-linejoin="round"/>
<path d="M44.2461 49.2715H54.6518" stroke="#041630" stroke-width="0.503913" stroke-linecap="round" stroke-linejoin="round"/>
<path d="M44.2461 61.1699H57.5534" stroke="#041630" stroke-width="0.503913" stroke-linecap="round" stroke-linejoin="round"/>
<path d="M44.3047 74.334H57.9122" stroke="#041630" stroke-width="0.503913" stroke-linecap="round" stroke-linejoin="round"/>
<path d="M44.2461 52.2871H55.8468" stroke="#041630" stroke-width="0.503913" stroke-linecap="round" stroke-linejoin="round"/>
<path d="M44.2461 64.4902H57.8891" stroke="#041630" stroke-width="0.503913" stroke-linecap="round" stroke-linejoin="round"/>
<path d="M44.3047 77.6465H57.9478" stroke="#041630" stroke-width="0.503913" stroke-linecap="round" stroke-linejoin="round"/>
<path d="M44.2461 55.0918H56.5202" stroke="#041630" stroke-width="0.503913" stroke-linecap="round" stroke-linejoin="round"/>
<path d="M44.2461 67.8027H58.1901" stroke="#041630" stroke-width="0.503913" stroke-linecap="round" stroke-linejoin="round"/>
<path d="M44.3047 80.959H57.512" stroke="#041630" stroke-width="0.503913" stroke-linecap="round" stroke-linejoin="round"/>
<path d="M71.1918 85.0131H29.3086C29.3086 83.7794 30.3087 82.7793 31.5424 82.7793H68.958C70.1917 82.7793 71.1918 83.7794 71.1918 85.0131Z" fill="#E4DCFF" stroke="#041630" stroke-width="0.503913" stroke-linecap="round" stroke-linejoin="round"/>
</g>
</g>
<defs>
<clipPath id="clip0_906_19070">
<rect width="100" height="100" fill="white" transform="translate(0.25 0.708984)"/>
</clipPath>
<clipPath id="clip1_906_19070">
<rect width="100" height="100" fill="white" transform="translate(0.25 0.708984)"/>
</clipPath>
</defs>
</svg>
