<svg width="101" height="101" viewBox="0 0 101 101" fill="none" xmlns="http://www.w3.org/2000/svg">
<g clip-path="url(#clip0_906_18982)">
<g clip-path="url(#clip1_906_18982)">
<mask id="mask0_906_18982" style="mask-type:luminance" maskUnits="userSpaceOnUse" x="6" y="10" width="88" height="77">
<path d="M93.7342 10.709H6.76953V86.9443H93.7342V10.709Z" fill="white"/>
</mask>
<g mask="url(#mask0_906_18982)">
<mask id="mask1_906_18982" style="mask-type:luminance" maskUnits="userSpaceOnUse" x="6" y="10" width="88" height="77">
<path d="M93.7342 10.709H6.76953V86.9443H93.7342V10.709Z" fill="white"/>
</mask>
<g mask="url(#mask1_906_18982)">
<mask id="mask2_906_18982" style="mask-type:luminance" maskUnits="userSpaceOnUse" x="6" y="10" width="88" height="77">
<path d="M93.7342 10.709H6.76953V86.9443H93.7342V10.709Z" fill="white"/>
</mask>
<g mask="url(#mask2_906_18982)">
<path opacity="0.06" fill-rule="evenodd" clip-rule="evenodd" d="M79.2744 89.8619C88.1505 81.8707 93.7343 70.2688 93.7343 57.3582C93.7343 33.2514 74.2666 13.709 50.2519 13.709C26.2373 13.709 6.76953 33.2514 6.76953 57.3582C6.76953 70.1255 12.2301 81.6126 20.9346 89.5942C34.8049 89.5784 66.5053 90.1527 79.2744 89.8619Z" fill="#B2B2B2"/>
<path d="M30.2326 35.7827C29.5446 35.7827 28.8996 35.984 28.3622 36.3378C27.8247 33.4263 25.304 31.2168 22.2727 31.2168C19.2359 31.2168 16.7045 33.4317 16.1778 36.3541C15.5381 35.9895 14.8018 35.7827 14.0117 35.7827C11.5716 35.7827 9.59375 37.7853 9.59375 40.256C9.59375 40.735 9.669 41.1976 9.80874 41.6329H32.8447C33.3875 41.0125 33.7153 40.1962 33.7153 39.3037C33.71 37.3609 32.1567 35.7827 30.2326 35.7827Z" fill="#FEFEFE" stroke="#0053FA" stroke-width="0.503913" stroke-linecap="round" stroke-linejoin="round"/>
<path d="M87.8064 27.2158C87.345 27.2158 86.9125 27.3536 86.5522 27.5957C86.1919 25.6036 84.5017 24.0918 82.4693 24.0918C80.4336 24.0918 78.736 25.6073 78.383 27.6068C77.9544 27.3574 77.4603 27.2158 76.9306 27.2158C75.2947 27.2158 73.9688 28.5861 73.9688 30.2766C73.9688 30.6043 74.0191 30.9208 74.1128 31.2187H89.5574C89.9211 30.7942 90.1413 30.2357 90.1413 29.625C90.1374 28.2957 89.0962 27.2158 87.8064 27.2158Z" fill="#FEFEFE" stroke="#0053FA" stroke-width="0.503913" stroke-linecap="round" stroke-linejoin="round"/>
<path d="M42.1735 27.8727L41.9274 27.8888L41.9275 27.8906L41.9278 27.8962L41.9292 27.9183L41.9346 28.0039C41.9392 28.0787 41.9458 28.1872 41.9536 28.3227C41.9691 28.5937 41.9895 28.9719 42.009 29.4009C42.048 30.2603 42.0829 31.3176 42.0676 32.1237C42.0532 32.9722 42.218 33.6868 42.3864 34.1892C42.4707 34.4407 42.5562 34.64 42.6213 34.7776C42.6239 34.783 42.6263 34.7882 42.6288 34.7933C41.2926 35.7946 40.9321 37.5865 41.0647 39.0442C41.1344 39.8105 41.3421 40.5189 41.6443 41.0115C41.7952 41.2575 41.9789 41.4649 42.196 41.591C42.3034 41.6536 42.4181 41.6953 42.5373 41.7119C42.3477 42.6327 42.5262 43.2379 42.8109 43.6249C42.9403 43.8008 43.0854 43.9227 43.2114 44.0052C43.188 44.0365 43.1636 44.0706 43.1386 44.1077C42.976 44.3487 42.7869 44.7129 42.6641 45.2184C42.4177 46.2321 42.4439 47.7875 43.4368 50.0238C43.663 50.5333 43.8226 51.3765 43.9187 52.4894C44.0141 53.5947 44.0451 54.9404 44.0274 56.4381C43.992 59.433 43.7623 63.0188 43.4712 66.4717C43.1802 69.9235 42.8282 73.2389 42.5489 75.6914C42.4092 76.918 42.2878 77.9282 42.2013 78.6319C42.158 78.9837 42.1235 79.2587 42.0998 79.4456C42.088 79.5393 42.0788 79.6111 42.0726 79.6591L42.0656 79.7138L42.0638 79.7274L42.0634 79.7308L42.0633 79.7319C42.0632 79.7319 42.0632 79.7319 42.3079 79.7635L42.0633 79.7319C42.0541 79.8025 42.0757 79.8731 42.1225 79.9267C42.1694 79.9798 42.2369 80.0103 42.3079 80.0103H57.1502C57.2173 80.0103 57.2815 79.9832 57.328 79.9346C57.3745 79.8861 57.3993 79.8211 57.3967 79.7539L57.1502 79.7635C57.3967 79.7539 57.3967 79.7539 57.3967 79.7539V79.7528L57.3965 79.75L57.3961 79.7381L57.3943 79.6912L57.387 79.5071C57.3808 79.3456 57.3716 79.109 57.36 78.8075C57.3369 78.2038 57.3041 77.3398 57.2654 76.2979C57.1882 74.2147 57.0879 71.4211 56.9953 68.579C56.9027 65.7364 56.8178 62.8465 56.7716 60.5706C56.7485 59.4325 56.735 58.4492 56.735 57.7027C56.735 57.3631 56.7379 57.0775 56.7435 56.8503C57.2423 57.3484 57.7153 57.6004 58.1643 57.592C58.7539 57.581 59.1688 57.1303 59.4463 56.5578C60.0045 55.4062 60.1775 53.4381 60.0434 51.698C59.9093 49.9588 59.1738 49.0961 58.4852 48.2883C58.4569 48.2551 58.4287 48.2221 58.4007 48.1891C58.0469 47.7727 57.7199 47.3703 57.4774 46.8539C57.2367 46.3411 57.0742 45.704 57.0742 44.8204C57.0742 42.915 56.359 41.7763 55.5101 41.057C55.091 40.7018 54.6458 40.4541 54.2552 40.266C54.0819 40.1826 53.9174 40.1099 53.7718 40.0457C53.7537 40.0377 53.7359 40.0298 53.7183 40.0221C53.557 39.9507 53.427 39.892 53.327 39.8371C52.9855 39.6508 52.9031 39.3701 52.9049 39.1123C52.9058 38.9795 52.9299 38.8565 52.9548 38.7653C52.9642 38.7305 52.9736 38.7011 52.9814 38.6785C53.1883 38.4854 53.1999 38.2163 53.1802 38.0446C53.1689 37.9451 53.1455 37.8572 53.1256 37.7953C53.1155 37.7639 53.106 37.7381 53.0988 37.7194C53.0958 37.7118 53.0932 37.7054 53.091 37.7002C52.916 37.1582 52.8398 36.5916 52.8081 36.1556C52.7922 35.9372 52.7875 35.7537 52.7869 35.6253C52.7866 35.5612 52.7873 35.511 52.788 35.4772C52.7882 35.4686 52.7883 35.4611 52.7885 35.4546L52.9605 34.836L55.0637 34.8613C55.1879 34.8629 55.2938 34.7718 55.311 34.6488C55.3282 34.5258 55.2512 34.4092 55.1315 34.3766L52.9814 33.7915L55.4019 32.6075C55.5142 32.5526 55.5677 32.4223 55.5263 32.3043C55.485 32.1863 55.3619 32.1179 55.2398 32.1452L52.4305 32.7719L52.1565 32.4681L53.5908 29.8781C53.6496 29.7719 53.6224 29.6386 53.5266 29.5639C53.4308 29.4893 53.2948 29.4956 53.2062 29.5786L50.8882 31.7523L50.487 31.6861L49.8069 28.4833C49.7815 28.3639 49.6727 28.281 49.5509 28.2883C49.4291 28.2956 49.3309 28.3907 49.3199 28.5122L49.0194 31.8211L48.7696 31.8871L46.5168 29.9164C46.4259 29.8369 46.2909 29.8348 46.1977 29.9115C46.1044 29.9882 46.0804 30.1211 46.1408 30.2256L47.5728 32.7011L47.4484 32.8463L45.5648 32.6947C45.4694 31.9498 45.2534 30.9953 44.7658 30.0974C44.5397 29.679 44.3746 29.0897 44.2495 28.4182C44.1252 27.7506 44.044 27.0219 43.9768 26.3346C43.9467 26.0261 43.9776 25.7626 44.0252 25.5236C44.0464 25.4169 44.0705 25.3167 44.0947 25.2166C44.098 25.203 44.1012 25.1894 44.1045 25.1758C44.1313 25.0645 44.158 24.9503 44.1753 24.8385C44.2105 24.6112 44.2107 24.3699 44.0862 24.1256C43.965 23.8875 43.7424 23.6802 43.4055 23.4773C43.2961 23.4114 43.1729 23.4143 43.0703 23.4681C42.9854 23.5124 42.9258 23.5847 42.8852 23.6445C42.8013 23.768 42.7284 23.9456 42.6637 24.1388C42.5318 24.5328 42.4066 25.078 42.299 25.6214C42.1908 26.1674 42.0984 26.7218 42.0331 27.139C42.0004 27.3478 41.9744 27.5226 41.9566 27.6454C41.9477 27.7067 41.9408 27.7551 41.9362 27.7881L41.9309 27.8261L41.9296 27.8359L41.9292 27.8384C41.9292 27.8385 41.9291 27.8393 42.1735 27.8727ZM42.1735 27.8727L41.9274 27.8888C41.9263 27.8723 41.9269 27.8548 41.9292 27.8384L42.1735 27.8727ZM42.3143 32.1283C42.2866 33.7573 42.9471 34.8716 42.9471 34.8716C40.3607 36.5592 41.2376 41.3338 42.5938 41.4703L42.3143 32.1283Z" fill="white"/>
<path d="M42.1735 27.8727L41.9274 27.8888M42.1735 27.8727C41.9291 27.8393 41.9291 27.8392 41.9291 27.8391M42.1735 27.8727L41.9291 27.8391M41.9274 27.8888L41.9275 27.8906L41.9278 27.8962L41.9292 27.9183L41.9346 28.0039C41.9392 28.0787 41.9458 28.1872 41.9536 28.3227C41.9691 28.5937 41.9895 28.9719 42.009 29.4009C42.048 30.2603 42.0829 31.3176 42.0676 32.1237C42.0532 32.9722 42.218 33.6868 42.3864 34.1892C42.4707 34.4407 42.5562 34.64 42.6213 34.7776C42.6239 34.783 42.6263 34.7882 42.6288 34.7933C41.2926 35.7946 40.9321 37.5865 41.0647 39.0442C41.1344 39.8105 41.3421 40.5189 41.6443 41.0115C41.7952 41.2575 41.9789 41.4649 42.196 41.591C42.3034 41.6536 42.4181 41.6953 42.5373 41.7119C42.3477 42.6327 42.5262 43.2379 42.8109 43.6249C42.9403 43.8008 43.0854 43.9227 43.2114 44.0052C43.188 44.0365 43.1636 44.0706 43.1386 44.1077C42.976 44.3487 42.7869 44.7129 42.6641 45.2184C42.4177 46.2321 42.4439 47.7875 43.4368 50.0238C43.663 50.5333 43.8226 51.3765 43.9187 52.4894C44.0141 53.5947 44.0451 54.9404 44.0274 56.4381C43.992 59.433 43.7623 63.0188 43.4712 66.4717C43.1802 69.9235 42.8282 73.2389 42.5489 75.6914C42.4092 76.918 42.2878 77.9282 42.2013 78.6319C42.158 78.9837 42.1235 79.2587 42.0998 79.4456C42.088 79.5393 42.0788 79.6111 42.0726 79.6591L42.0656 79.7138L42.0638 79.7274L42.0634 79.7308L42.0633 79.7319M41.9274 27.8888C41.9263 27.8723 41.9268 27.8555 41.9291 27.8391M41.9291 27.8391L41.9296 27.8359L41.9309 27.8261L41.9362 27.7881C41.9408 27.7551 41.9477 27.7067 41.9566 27.6454C41.9744 27.5226 42.0004 27.3478 42.0331 27.139C42.0984 26.7218 42.1908 26.1674 42.299 25.6214C42.4066 25.078 42.5318 24.5328 42.6637 24.1388C42.7284 23.9456 42.8013 23.768 42.8852 23.6445C42.9258 23.5847 42.9854 23.5124 43.0703 23.4681C43.1729 23.4143 43.2961 23.4114 43.4055 23.4773C43.7424 23.6802 43.965 23.8875 44.0862 24.1256C44.2107 24.3699 44.2105 24.6112 44.1753 24.8385C44.158 24.9503 44.1313 25.0645 44.1045 25.1758C44.1012 25.1894 44.098 25.203 44.0947 25.2166C44.0705 25.3167 44.0464 25.4169 44.0252 25.5236C43.9776 25.7626 43.9467 26.0261 43.9768 26.3346C44.044 27.0219 44.1252 27.7506 44.2495 28.4182C44.3746 29.0897 44.5397 29.679 44.7658 30.0974C45.2534 30.9953 45.4694 31.9498 45.5648 32.6947L47.4484 32.8463L47.5728 32.701L46.1408 30.2256C46.0804 30.1211 46.1044 29.9882 46.1977 29.9115C46.2909 29.8348 46.4259 29.8369 46.5168 29.9164L48.7696 31.8871L49.0194 31.8211L49.3199 28.5122C49.3309 28.3907 49.4291 28.2956 49.5509 28.2883C49.6727 28.281 49.7815 28.3639 49.8069 28.4833L50.487 31.6861L50.8882 31.7523L53.2062 29.5786C53.2948 29.4956 53.4308 29.4893 53.5266 29.5639C53.6224 29.6386 53.6496 29.7719 53.5908 29.8781L52.1565 32.4681L52.4305 32.7719L55.2398 32.1452C55.3619 32.1179 55.485 32.1863 55.5263 32.3043C55.5677 32.4223 55.5142 32.5526 55.4019 32.6075L52.9814 33.7915L55.1315 34.3766C55.2512 34.4092 55.3282 34.5258 55.311 34.6488C55.2938 34.7718 55.1879 34.8629 55.0637 34.8613L52.9605 34.836L52.7885 35.4546C52.7883 35.4611 52.7882 35.4686 52.788 35.4772C52.7873 35.511 52.7866 35.5612 52.7869 35.6253C52.7875 35.7537 52.7922 35.9372 52.8081 36.1556C52.8398 36.5916 52.916 37.1582 53.091 37.7002C53.0932 37.7054 53.0958 37.7118 53.0988 37.7194C53.106 37.7381 53.1155 37.7639 53.1256 37.7953C53.1455 37.8572 53.1689 37.9451 53.1802 38.0446C53.1999 38.2163 53.1883 38.4854 52.9814 38.6785C52.9736 38.7011 52.9642 38.7305 52.9548 38.7653C52.9299 38.8565 52.9058 38.9795 52.9049 39.1123C52.9031 39.3701 52.9855 39.6508 53.327 39.8371C53.427 39.892 53.557 39.9507 53.7183 40.0221C53.7359 40.0298 53.7537 40.0377 53.7718 40.0457C53.9174 40.1099 54.0819 40.1826 54.2552 40.266C54.6458 40.4541 55.091 40.7018 55.5101 41.057C56.359 41.7763 57.0742 42.915 57.0742 44.8204C57.0742 45.704 57.2367 46.3411 57.4774 46.8539C57.7199 47.3703 58.0469 47.7727 58.4007 48.1891C58.4287 48.2221 58.4569 48.2551 58.4852 48.2883C59.1738 49.0961 59.9093 49.9588 60.0434 51.698C60.1775 53.4381 60.0045 55.4062 59.4463 56.5578C59.1688 57.1303 58.7539 57.581 58.1643 57.592C57.7153 57.6004 57.2423 57.3484 56.7435 56.8503C56.7379 57.0775 56.735 57.3631 56.735 57.7027C56.735 58.4492 56.7485 59.4325 56.7716 60.5706C56.8178 62.8465 56.9027 65.7364 56.9953 68.579C57.0879 71.4211 57.1882 74.2147 57.2654 76.2979C57.3041 77.3398 57.3369 78.2038 57.36 78.8075C57.3716 79.109 57.3808 79.3456 57.387 79.5071L57.3943 79.6912L57.3961 79.7381L57.3965 79.75L57.3967 79.7528V79.7539M42.0633 79.7319C42.0632 79.7319 42.0632 79.7319 42.3079 79.7635L42.0633 79.7319ZM42.0633 79.7319C42.0541 79.8025 42.0757 79.8731 42.1225 79.9267C42.1694 79.9798 42.2369 80.0103 42.3079 80.0103H57.1502C57.2173 80.0103 57.2815 79.9832 57.328 79.9346C57.3745 79.8861 57.3993 79.8211 57.3967 79.7539M57.3967 79.7539L57.1502 79.7635C57.3967 79.7539 57.3967 79.7539 57.3967 79.7539ZM42.3143 32.1283C42.2866 33.7573 42.9471 34.8716 42.9471 34.8716C40.3607 36.5592 41.2376 41.3338 42.5938 41.4703L42.3143 32.1283Z" stroke="#041630" stroke-width="0.493397" stroke-linecap="round" stroke-linejoin="round"/>
<path d="M57.832 55.4116C57.832 55.4116 58.9101 56.055 59.141 54.4355L57.832 55.4116Z" fill="#FEFEFE"/>
<path d="M57.832 55.4116C57.832 55.4116 58.9101 56.055 59.141 54.4355" stroke="#041630" stroke-width="0.493397" stroke-linecap="round" stroke-linejoin="round"/>
<path d="M41.7379 19.5493C41.6936 19.488 41.1759 18.4625 41.0381 18.0069C40.8592 17.4146 41.0115 16.3654 41.4573 15.5975C41.7035 16.9336 42.1702 16.3802 42.1702 16.3802C42.1702 16.3802 42.6428 14.9719 42.6428 13.8185C42.6428 12.665 43.0808 16.1418 43.0808 16.1418C43.0808 16.1418 43.4273 16.8257 43.7811 15.5975C44.2107 15.9364 44.3774 17.2848 44.3039 17.7577C44.2344 18.2076 43.5119 19.5493 43.3256 19.5493C43.312 19.5493 41.8068 19.6433 41.7379 19.5493Z" fill="#D3C5FF" stroke="#0053FA" stroke-width="0.548218" stroke-linecap="round" stroke-linejoin="round"/>
<path d="M43.2365 23.2987L43.6652 21.7615L44.724 21.3021V19.7897C42.3172 19.0457 40.3711 19.7897 40.3711 19.7897V21.2162L41.286 21.7615L41.7158 22.9034V27.248C41.7158 27.248 41.7363 28.1997 42.45 28.1997C43.1637 28.1997 43.2365 27.248 43.2365 27.248V23.2987Z" fill="#FEFEFE" stroke="#041630" stroke-width="0.493397" stroke-linecap="round" stroke-linejoin="round"/>
<path d="M40.5703 21.2191C40.5703 21.2191 41.6672 21.0215 42.3998 21.0215C43.1324 21.0215 44.4786 21.2191 44.4786 21.2191" stroke="#041630" stroke-width="0.493397" stroke-linecap="round" stroke-linejoin="round"/>
<path d="M43.1211 34.248L43.7834 37.8384" stroke="#041630" stroke-width="0.493397" stroke-linecap="round" stroke-linejoin="round"/>
<path d="M43.1882 34.7766C41.4599 36.042 41.46 39.9271 43.5102 38.6774C45.5605 37.4277 45.5246 33.3418 45.5246 33.3418" stroke="#041630" stroke-width="0.493397" stroke-linecap="round" stroke-linejoin="round"/>
<path d="M45.5233 38.6699C45.5233 38.6699 44.6039 40.7842 43.0312 40.7842" stroke="#041630" stroke-width="0.493397" stroke-linecap="round" stroke-linejoin="round"/>
<path d="M45.3672 32.748C45.3672 32.748 47.1587 35.1498 47.4255 36.7511" stroke="#041630" stroke-width="0.493397" stroke-linecap="round" stroke-linejoin="round"/>
<path d="M46.413 41.5605C46.413 41.5605 45.4465 43.3765 43.9961 43.3765" stroke="#041630" stroke-width="0.493397" stroke-linecap="round" stroke-linejoin="round"/>
<path d="M59.2861 53.1991C59.2861 53.1991 59.9945 53.7063 60.4827 53.1991C60.9709 52.6918 61.9206 50.6316 61.9206 50.6316L61.151 49.3027L58.5547 53.1991H59.2861Z" fill="#FEFEFE" stroke="#041630" stroke-width="0.493397" stroke-linecap="round" stroke-linejoin="round"/>
<path d="M54.5625 51.0921L59.3758 45.1621L63.159 47.3228L58.2873 54.4369L54.5625 51.0921Z" fill="white" stroke="#041630" stroke-width="0.548218" stroke-linecap="round" stroke-linejoin="round"/>
<path d="M53.3814 39.4277C57.0006 44.7799 57.0006 61.2773 57.0006 61.2773C57.0006 61.2773 50.3902 62.7349 50.1987 63.4033C50.1708 63.5008 50.1838 63.6785 50.2687 63.6785C53.0287 63.6785 50.6622 65.3813 48.6848 66.491C46.7074 67.6007 43.1202 69.6568 43.1202 69.6568L44.3057 57.4721C44.3057 57.4721 42.481 55.0534 44.3057 51.2518C39.3725 49.7141 50.1264 42.1839 53.3814 39.4277Z" fill="#0053FA" stroke="#041630" stroke-width="0.548218" stroke-linecap="round" stroke-linejoin="round"/>
<path d="M40.668 24.221C40.668 22.9763 42.0626 22.4397 42.3489 23.7832C42.6352 25.1265 41.5345 26.0864 41.5345 26.0864C41.5345 26.0864 40.668 25.4658 40.668 24.221Z" fill="#FEFEFE" stroke="#041630" stroke-width="0.493397" stroke-linecap="round" stroke-linejoin="round"/>
<path d="M43.498 24.011C42.6398 23.5026 42.0501 21.841 42.6308 22.3172C43.2114 22.7934 43.7844 23.3185 43.7844 23.3185" fill="#FEFEFE"/>
<path d="M43.498 24.011C42.6398 23.5026 42.0501 21.841 42.6308 22.3172C43.2114 22.7934 43.7844 23.3185 43.7844 23.3185" stroke="#041630" stroke-width="0.548218" stroke-linecap="round" stroke-linejoin="round"/>
<path d="M44.1797 51.55C46.5772 46.886 53.2593 42.3809 53.2593 42.3809" stroke="#041630" stroke-width="0.493397" stroke-linecap="round" stroke-linejoin="round"/>
<path d="M44.332 57.4031C44.332 57.4031 45.0994 53.9521 48.4996 51.4746" stroke="#041630" stroke-width="0.493397" stroke-linecap="round" stroke-linejoin="round"/>
<path d="M60.3062 51.927C60.3062 51.927 59.0285 50.9838 59.5113 50.2855C59.9941 49.5873 61.0374 50.3675 61.0374 50.3675C61.0374 50.3675 61.0194 50.6058 60.4099 48.9357C60.7051 48.1701 61.6636 50.208 61.6636 50.208" fill="#FEFEFE"/>
<path d="M60.3062 51.927C60.3062 51.927 59.0285 50.9838 59.5113 50.2855C59.9941 49.5873 61.0374 50.3675 61.0374 50.3675C61.0374 50.3675 61.0194 50.6058 60.4099 48.9357C60.7051 48.1701 61.6636 50.208 61.6636 50.208" stroke="#041630" stroke-width="0.493397" stroke-linecap="round" stroke-linejoin="round"/>
<path d="M47.2031 36.3652C47.2031 36.3652 47.8136 37.6178 47.5083 38.6749" stroke="#041630" stroke-width="0.493397" stroke-linecap="round" stroke-linejoin="round"/>
<path d="M47.7305 37.5215C47.7305 37.5215 48.8519 37.8767 50.1785 39.4324C51.5052 40.9881 53.2593 39.7334 53.2593 39.7334" stroke="#041630" stroke-width="0.493397" stroke-linecap="round" stroke-linejoin="round"/>
<path d="M50.4949 37.8419C48.9648 37.8419 47.7305 34.4492 47.7305 34.4492C47.7305 34.4492 48.6073 32.584 50.27 32.584C51.9327 32.584 52.5524 34.2515 52.5524 34.2515C52.5524 34.2515 52.0249 37.8419 50.4949 37.8419Z" fill="#FCF0F1" stroke="#041630" stroke-width="0.548218" stroke-linecap="round" stroke-linejoin="round"/>
<path d="M48.7195 36.5648V38.0393L47.7305 37.7197L48.225 36.334" stroke="#041630" stroke-width="0.493397" stroke-linecap="round" stroke-linejoin="round"/>
<path d="M51.692 37.1855C51.692 37.1855 51.6472 38.5707 52.3541 39.4319" stroke="#041630" stroke-width="0.493397" stroke-linecap="round" stroke-linejoin="round"/>
<path d="M46.0177 68.123L45.1289 79.1354" stroke="#041630" stroke-width="0.493397" stroke-linecap="round" stroke-linejoin="round"/>
<path d="M48.7802 66.4824L48.1094 79.2367" stroke="#041630" stroke-width="0.493397" stroke-linecap="round" stroke-linejoin="round"/>
<path d="M54.4219 62.4434L54.9169 79.1766" stroke="#041630" stroke-width="0.493397" stroke-linecap="round" stroke-linejoin="round"/>
<path d="M52.0221 63.0371L51.9531 79.0068" stroke="#041630" stroke-width="0.493397" stroke-linecap="round" stroke-linejoin="round"/>
<path d="M50.3164 63.2319L51.7745 47.5215" stroke="#041630" stroke-width="0.493397" stroke-linecap="round" stroke-linejoin="round"/>
<path d="M59.8007 78.8184H39.8516V81.6682H59.8007V78.8184Z" fill="#E4DCFF" stroke="#041630" stroke-width="0.548218" stroke-linecap="round" stroke-linejoin="round"/>
<path d="M63.8035 81.6699H35.5703V84.6851H63.8035V81.6699Z" fill="#E4DCFF" stroke="#041630" stroke-width="0.548218" stroke-linecap="round" stroke-linejoin="round"/>
</g>
</g>
</g>
</g>
</g>
<defs>
<clipPath id="clip0_906_18982">
<rect width="100" height="100" fill="white" transform="translate(0.25 0.708984)"/>
</clipPath>
<clipPath id="clip1_906_18982">
<rect width="100" height="100" fill="white" transform="translate(0.25 0.708984)"/>
</clipPath>
</defs>
</svg>
